<?xml version="1.0" standalone="no"?>
<!DOCTYPE svg PUBLIC "-//W3C//DTD SVG 20010904//EN"
 "http://www.w3.org/TR/2001/REC-SVG-20010904/DTD/svg10.dtd">
<svg version="1.0" xmlns="http://www.w3.org/2000/svg"
 width="1411.000000pt" height="1411.000000pt" viewBox="0 0 1411.000000 1411.000000"
 preserveAspectRatio="xMidYMid meet">
<metadata>
Created by potrace 1.14, written by Peter Selinger 2001-2017
</metadata>
<g transform="translate(0.000000,1411.000000) scale(0.100000,-0.100000)"
fill="#000000" stroke="none">
<path d="M7255 13566 c-160 -162 -641 -648 -1070 -1081 -429 -433 -899 -907
-1045 -1055 -146 -147 -612 -618 -1036 -1046 -425 -429 -892 -900 -1039 -1049
-147 -148 -619 -625 -1049 -1059 -429 -434 -893 -902 -1030 -1040 -136 -138
-413 -417 -614 -619 -202 -204 -361 -371 -356 -376 7 -6 96 -29 179 -45 31 -7
112 -25 200 -46 44 -10 95 -22 114 -25 19 -3 37 -8 41 -10 3 -2 17 -6 31 -9
31 -6 128 -28 249 -56 52 -12 102 -23 110 -25 8 -2 56 -13 105 -25 50 -11 122
-28 160 -36 39 -9 77 -17 85 -19 41 -10 507 -117 520 -120 8 -2 133 -31 278
-64 145 -34 268 -61 273 -61 6 0 986 975 2177 2166 1301 1301 2168 2161 2171
2153 2 -8 53 -158 113 -334 61 -176 116 -338 123 -360 11 -35 75 -222 301
-880 31 -88 68 -198 84 -245 16 -47 83 -245 150 -440 67 -195 130 -380 140
-410 10 -30 64 -188 120 -350 56 -162 115 -337 133 -388 17 -51 34 -91 38 -90
4 2 243 235 531 519 288 284 660 652 828 817 l305 300 -13 39 c-7 21 -17 47
-22 58 -5 11 -54 151 -110 310 -56 160 -118 333 -137 385 -19 52 -36 101 -38
110 -2 8 -17 51 -34 95 -16 44 -60 166 -96 270 -62 176 -270 763 -387 1090
-27 77 -54 154 -60 170 -5 17 -14 39 -18 50 -4 11 -27 74 -50 140 -23 66 -44
127 -47 135 -3 8 -7 20 -9 25 -1 6 -46 132 -99 280 -53 149 -114 320 -135 380
-21 61 -53 148 -70 195 -17 47 -42 117 -55 155 -23 69 -154 439 -200 565 -31
85 -70 195 -145 410 -34 96 -65 184 -70 195 -5 11 -26 72 -48 135 -22 63 -64
180 -92 260 -29 80 -59 165 -67 190 -8 25 -18 48 -22 52 -3 4 -137 -125 -296
-286z"/>
<path d="M9568 6249 l-2166 -2169 -20 62 c-11 35 -41 124 -67 198 -26 74 -82
239 -125 365 -43 127 -131 383 -195 570 -108 316 -256 747 -275 805 -4 14 -63
185 -130 380 -67 195 -128 373 -135 395 -7 22 -61 180 -120 350 -59 171 -111
326 -117 345 -15 53 -17 54 -62 8 -44 -44 -950 -938 -1381 -1363 l-244 -240
18 -50 c10 -27 51 -142 90 -255 40 -113 81 -227 91 -255 11 -27 56 -153 100
-280 125 -355 149 -423 185 -520 18 -49 54 -151 80 -225 25 -74 57 -164 70
-200 13 -36 74 -207 135 -380 61 -173 122 -344 135 -380 27 -73 111 -310 190
-535 193 -548 248 -704 260 -735 14 -35 105 -291 172 -485 19 -55 38 -109 43
-120 5 -11 26 -67 46 -125 133 -384 404 -1143 410 -1149 3 -3 227 218 497 491
523 529 1511 1527 2378 2402 290 292 641 646 780 788 140 141 612 617 1049
1058 437 441 905 913 1039 1049 133 135 592 598 1020 1029 427 431 777 787
779 790 1 4 -211 56 -470 115 -260 60 -547 126 -638 147 -91 21 -266 62 -390
90 -318 73 -470 108 -585 135 -55 13 -135 31 -178 40 -43 9 -83 18 -90 19 -7
2 -987 -972 -2179 -2165z"/>
</g>
</svg>
